<svg width="27" height="27" viewBox="0 0 27 27" fill="none" xmlns="http://www.w3.org/2000/svg">
<g opacity="0.87">
<path d="M6.75 9C7.9875 9 9 7.9875 9 6.75C9 5.5125 7.9875 4.5 6.75 4.5C5.5125 4.5 4.5 5.5125 4.5 6.75C4.5 7.9875 5.5125 9 6.75 9ZM13.5 22.5C14.7375 22.5 15.75 21.4875 15.75 20.25C15.75 19.0125 14.7375 18 13.5 18C12.2625 18 11.25 19.0125 11.25 20.25C11.25 21.4875 12.2625 22.5 13.5 22.5ZM6.75 22.5C7.9875 22.5 9 21.4875 9 20.25C9 19.0125 7.9875 18 6.75 18C5.5125 18 4.5 19.0125 4.5 20.25C4.5 21.4875 5.5125 22.5 6.75 22.5ZM6.75 15.75C7.9875 15.75 9 14.7375 9 13.5C9 12.2625 7.9875 11.25 6.75 11.25C5.5125 11.25 4.5 12.2625 4.5 13.5C4.5 14.7375 5.5125 15.75 6.75 15.75ZM13.5 15.75C14.7375 15.75 15.75 14.7375 15.75 13.5C15.75 12.2625 14.7375 11.25 13.5 11.25C12.2625 11.25 11.25 12.2625 11.25 13.5C11.25 14.7375 12.2625 15.75 13.5 15.75ZM18 6.75C18 7.9875 19.0125 9 20.25 9C21.4875 9 22.5 7.9875 22.5 6.75C22.5 5.5125 21.4875 4.5 20.25 4.5C19.0125 4.5 18 5.5125 18 6.75ZM13.5 9C14.7375 9 15.75 7.9875 15.75 6.75C15.75 5.5125 14.7375 4.5 13.5 4.5C12.2625 4.5 11.25 5.5125 11.25 6.75C11.25 7.9875 12.2625 9 13.5 9ZM20.25 15.75C21.4875 15.75 22.5 14.7375 22.5 13.5C22.5 12.2625 21.4875 11.25 20.25 11.25C19.0125 11.25 18 12.2625 18 13.5C18 14.7375 19.0125 15.75 20.25 15.75ZM20.25 22.5C21.4875 22.5 22.5 21.4875 22.5 20.25C22.5 19.0125 21.4875 18 20.25 18C19.0125 18 18 19.0125 18 20.25C18 21.4875 19.0125 22.5 20.25 22.5Z" fill="black"/>
</g>
</svg>
